inDegrees=no
num_controls=7
num_derivatives=13
num_iterations=35
num_multipliers=7
num_parameters=0
num_slacks=7
num_states=26
objective=0.522023
objective_accelerations=0.000652
objective_balance=0.010030
objective_effort=0.014115
objective_height=0.468846
objective_ligament=0.028381
solver_duration=485.985281
status=Solve_Succeeded
success=true
DataType=double
version=3
OpenSimVersion=4.5
endheader
time	/jointset/ground_pelvis/pelvis_tilt/value	/jointset/ground_pelvis/pelvis_tx/value	/jointset/ground_pelvis/pelvis_ty/value	/jointset/hip_l/hip_flexion_l/value	/jointset/hip_l/hip_adduction_l/value	/jointset/hip_l/hip_rotation_l/value	/jointset/back/lumbar_extension/value	/jointset/patellofemoral_l/patellar_flexion_l/value	/jointset/knee_l/knee_flexion_l/value	/jointset/knee_l/knee_adduction_l/value	/jointset/knee_l/knee_rotation_l/value	/jointset/ankle_l/ankle_angle_l/value	/jointset/subtalar_l/subtalar_angle_l/value	/jointset/ground_pelvis/pelvis_tilt/speed	/jointset/ground_pelvis/pelvis_tx/speed	/jointset/ground_pelvis/pelvis_ty/speed	/jointset/hip_l/hip_flexion_l/speed	/jointset/hip_l/hip_adduction_l/speed	/jointset/hip_l/hip_rotation_l/speed	/jointset/back/lumbar_extension/speed	/jointset/patellofemoral_l/patellar_flexion_l/speed	/jointset/knee_l/knee_flexion_l/speed	/jointset/knee_l/knee_adduction_l/speed	/jointset/knee_l/knee_rotation_l/speed	/jointset/ankle_l/ankle_angle_l/speed	/jointset/subtalar_l/subtalar_angle_l/speed	/forceset/tau_hip_flexion_l	/forceset/tau_hip_adduction_l	/forceset/tau_hip_rotation_l	/forceset/tau_knee_flexion_l	/forceset/tau_ankle_angle_l	/forceset/tau_subtalar_angle_l	/forceset/tau_lumbar_extension	lambda_cid13_p0	lambda_cid13_p1	lambda_cid13_p2	lambda_cid13_p3	lambda_cid13_p4	lambda_cid13_p5	lambda_cid14_p0	/jointset/ground_pelvis/pelvis_tilt/accel	/jointset/ground_pelvis/pelvis_tx/accel	/jointset/ground_pelvis/pelvis_ty/accel	/jointset/hip_l/hip_flexion_l/accel	/jointset/hip_l/hip_adduction_l/accel	/jointset/hip_l/hip_rotation_l/accel	/jointset/back/lumbar_extension/accel	/jointset/patellofemoral_l/patellar_flexion_l/accel	/jointset/knee_l/knee_flexion_l/accel	/jointset/knee_l/knee_adduction_l/accel	/jointset/knee_l/knee_rotation_l/accel	/jointset/ankle_l/ankle_angle_l/accel	/jointset/subtalar_l/subtalar_angle_l/accel	gamma_cid13_p0	gamma_cid13_p1	gamma_cid13_p2	gamma_cid13_p3	gamma_cid13_p4	gamma_cid13_p5	gamma_cid14_p0
0	-0.1178425045566999	0.03824707845975942	0.9041624536120263	0.3774924667018715	-0.1515946154932692	-0.07749886094867109	-0.01265067647494873	0.03223648243722507	0.03223648243721463	0.05415915087608433	-0.03299955608845592	-0.04231377076293093	0.0946152924515145	0	0	0	0	0	0	0	0	0	0	0	0	0	0.00557723607817943	0.06114227500459238	0.0105194923697043	-0.1294183262522508	0.1287714462041903	-0.05011586447294838	0.02975352939766146	-3.895055795488092	23.9510579789554	-5.938507809724545	30.1215201576494	-625.8900297252898	-14.32681434949047	-34.14903189666393	0.3792139417287537	-0.4445834270296847	-0.03092172999387145	0.2331976333418952	0.03922097307582071	-0.0128906549471762	0.009191492228532824	0.1351148054888432	0.1351148054888344	0.07352738843526095	0.06947240583276215	-0.4832946572005736	-0.1071583959511699	1.282427631746421e-09	3.380258401264943e-09	-1.88398570089283e-09	-1.576277865386745e-09	1.640130028521229e-08	6.553842574471811e-09	-8.613941947895599e-11
0.01	-0.1178289630240459	0.03823010457377224	0.904161162347706	0.3775026670702217	-0.151593092147652	-0.07749969590043504	-0.01265303978321838	0.03224210556580988	0.03224210556580819	0.05416202033799743	-0.03299648790340975	-0.04233206748852291	0.09461127906685639	0.002161737222602636	-0.002869957164347678	-0.0002335544683767829	0.001903342465446453	0.0002613535513746308	-0.0001836537526976447	-0.0007511554947474227	0.001017279747561779	0.001017279747561703	0.0004947201610668711	0.0005716154594166788	-0.003071097717469098	-0.0006673647953309135	0.03640433753817728	0.05475825610141024	0.01531648725792259	-0.1894982316659913	0.2187861190717341	-0.05292940267334935	0.009484250748749175	24.96974248190601	24.0408275275759	-10.43253488578045	6.336621784467468	-628.5730898361098	-14.58034703453396	-34.14945112711833	0.05266800335125749	-0.1294791720488213	-0.01586426566655644	0.1483929597654297	0.01309539762766109	-0.0236018901527216	-0.1590431460919137	0.06893268129687501	0.06893268129681968	0.02556857618135935	0.04470325285116261	-0.1307801102191589	-0.02622903638201517	7.110626148193706e-10	2.162239313671458e-09	-1.133853770019027e-09	-7.947865121864186e-10	9.614972985829746e-09	4.028452026577735e-09	-4.023078750507554e-11
0.02	-0.1178102012410134	0.03820017565395841	0.9041582771466193	0.3775277989445567	-0.1515902546962157	-0.07750286722067566	-0.01267126946158545	0.03225468111625809	0.03225468111626022	0.05416746185071964	-0.03298896413638489	-0.04236342774753444	0.09460465133123228	0.001044050078275882	-0.002591006765330228	-0.0003187873532817717	0.002986301195658925	0.0002628211610982872	-0.0004672736942616506	-0.00317327402007687	0.001390484371407225	0.001390484371407118	0.0005144101717144344	0.0008911163930350435	-0.002612706682902058	-0.0005228701929733516	0.06723143899832126	0.04837423719830738	0.02011348214623066	-0.2495781370796705	0.308800791939301	-0.05574294087366572	-0.01078502790004895	53.83474397662712	24.13011339374628	-14.92597293207934	-17.44118857833994	-631.2490027590231	-14.83435780502823	-34.15014314765451	-0.2766709316568682	0.1851980856431191	-0.00125741329952175	0.06912088629513952	-0.01275621525436877	-0.03288389272042678	-0.3250011138877292	0.006299780745642527	0.006299780745642405	-0.02147864164858987	0.01904950067310795	0.222603093206416	0.05521348358645788	1.396975978923199e-10	9.442202260779726e-10	-3.837218391452233e-10	-1.329515898609215e-11	2.828645686447206e-09	1.503061478683658e-09	5.677844468804906e-12
0.03	-0.1178125394880401	0.03818256760926912	0.904154988080666	0.3775612960677528	-0.1515881668074065	-0.07750919389975426	-0.01271868389304268	0.03226907531215518	0.03226907531214915	0.05417170806790298	-0.03297899057152073	-0.04237950035264546	0.09460195470387775	-0.001406781440831068	-0.001026527185794508	-0.0003430644572619229	0.003732941418197626	0.000163977942071418	-0.0007946779960213393	-0.006254004291943576	0.001508363828138219	0.001508363828137124	0.0003519297810240745	0.001110709222309023	-0.0007085886682283446	-3.965833260678375e-05	0.06142050939756337	0.04915470405641848	0.01922069757146362	-0.2383492143714835	0.2919047788919477	-0.05480145489513373	-0.006945544757114376	48.44277366028469	23.94402254883769	-14.07240868594991	-13.02318428093387	-630.7590859095596	-15.13417566645378	-34.15067744932004	-0.213551565404565	0.1276841420298436	-0.003618113635293401	0.08040832172161785	-0.007065146369570491	-0.032161003134001	-0.2912677865731515	0.01753338006829743	0.01753338006810011	-0.01106821844965568	0.02448115145097827	0.1583000197517893	0.04139447564815859	6.226515318354818e-11	5.255842844412932e-10	-2.238274819899155e-10	4.401238304237456e-12	1.448030193113249e-09	8.440135147910314e-10	1.367438800433176e-12
0.04	-0.1178362385109397	0.03817772660995861	0.9041513351927338	0.3776028541394752	-0.1515867907049951	-0.07751869308270395	-0.012795237387764	0.03228524857300304	0.032285248573005	0.0541748423850065	-0.03296660768285041	-0.04237973500477908	0.09460339408280172	-0.003228105094552546	-3.759768957678078e-05	-0.0003915517490118306	0.004598490900265643	0.0001204638773254644	-0.001101774466994062	-0.009001086673253002	0.001746297362130014	0.001746297362127925	0.0002920301635338964	0.001372981147437434	0.0005548839126018182	0.0003043310632194538	0.05560957979687644	0.04993517091454366	0.01832791299695296	-0.2271202916632709	0.2750087658445927	-0.05385996891659213	-0.003106061614108405	43.05143707620779	23.75808347350617	-13.21916873542001	-8.61420234429367	-630.2641026350688	-15.43253875816333	-34.15129288534895	-0.1507693585795291	0.07008806897931047	-0.006099450853481732	0.09290273820104425	-0.001690384398169646	-0.02882232656300159	-0.2582715357761378	0.03031059619787051	0.03031059619786931	-0.0009624870085205642	0.02758531984398963	0.09447400643748333	0.02736899067833977	-4.983114778454937e-12	1.234304695253728e-10	-7.610297171540154e-11	6.349285988175228e-12	1.788726751617372e-10	2.234468412901878e-10	-3.978410943036555e-12
0.05	-0.1178759613280986	0.0381807856645202	0.9041471161620914	0.3776534407388132	-0.1515856825730944	-0.07753116554395097	-0.01289803780921293	0.03230418002932325	0.03230418002931257	0.05417768426247599	-0.03295148318192222	-0.04236956846072235	0.09460776187765865	-0.004708199067748983	0.0006422136141796606	-0.0004524210304017884	0.005517978326445931	9.967398440239884e-05	-0.001390207059149352	-0.01154670355616909	0.002038519669603129	0.002038519669603403	0.0002732840044080929	0.001650148780734262	0.001468742561891907	0.0005647665522668156	0.05499402504054707	0.05048451642368916	0.01823231493223247	-0.2260310350723554	0.2735602359964987	-0.05424118112108037	-0.002677261237968537	42.56050293856212	23.92820303950561	-13.15331217838605	-8.224864084223999	-630.2321881340712	-15.06847367586832	-34.15205886039274	-0.1453905286972722	0.06584841362782501	-0.006105638923227863	0.09134414756632667	-0.002496556460224293	-0.02847710384910038	-0.2508626551755749	0.02845691410543813	0.02845691410568817	-0.002789880085062971	0.0275169594134695	0.08838944185586536	0.02471161632982997	-1.941455613415063e-11	4.929980800614719e-11	-3.339154894234953e-11	2.089682324682609e-11	1.178360110157346e-10	9.402588113403855e-11	-6.700306950257805e-12
0.06	-0.1179302373073986	0.0381904269826292	0.9041422834442064	0.3777131966929688	-0.1515848269930474	-0.07754644700678379	-0.01302592557761316	0.0323259894819421	0.03232598948194408	0.05418024683838472	-0.03293364010977252	-0.04235055380063475	0.09461460018506654	-0.006138737521215341	0.001278855019903201	-0.0005142891975142676	0.006432361862202206	6.995350264528003e-05	-0.001663574783598854	-0.01401855606409824	0.002321896620420056	0.002321896620422701	0.0002361698564746625	0.001916695387667412	0.00232450711842644	0.0007984335737922875	0.05437847028435625	0.05103386193281092	0.01813671686770963	-0.2249417784813438	0.2721117061484325	-0.05462239332558684	-0.002248460861732121	42.07008552513376	24.0983338089377	-13.08757354812328	-7.840653318491511	-630.1948477372792	-14.70340698295463	-34.15294547868982	-0.1408582546332746	0.06145408937252447	-0.006299227997994618	0.09188196011628495	-0.003476502164959086	-0.02580935302180883	-0.2435186607786188	0.0285415248667038	0.02854152486670381	-0.004636084770002286	0.02546111457124532	0.08285518788615687	0.02201529717391698	-3.162213110642287e-11	-1.10193523174281e-11	4.898270146430343e-12	3.597486532967539e-11	1.076675933457536e-10	-1.471525951285995e-11	-9.311720694900171e-12
